<svg preserveAspectRatio="none" width="100%" height="100%" overflow="visible" style="display: block;" viewBox="0 0 74.5624 72.7437" fill="none" xmlns="http://www.w3.org/2000/svg">
<path id="Vector" d="M37.2705 3.57959e-05C45.8962 -0.00236968 54.2559 2.91336 60.925 8.25037C67.5941 13.5874 72.1599 21.0154 73.8445 29.2687C75.529 37.522 74.228 46.0898 70.1632 53.5121C66.0983 60.9344 59.5212 66.7519 51.5525 69.9733C43.5838 73.1947 34.7167 73.6206 26.4623 71.1785C18.2078 68.7364 11.0766 63.5774 6.28411 56.5805C1.49157 49.5837 -0.665833 41.182 0.179536 32.8072C1.0249 24.4324 4.82073 16.6027 10.9202 10.6524C14.3758 7.26984 18.4828 4.58732 23.0051 2.75917C27.5273 0.931017 32.3754 -0.00667774 37.2705 3.57959e-05ZM37.034 43.8995L31.605 58.5347C31.4715 58.9014 31.2643 59.2385 30.9956 59.526C30.7268 59.8136 30.402 60.046 30.04 60.2095C29.4962 60.4582 28.889 60.5438 28.2953 60.4555C27.7016 60.3672 27.1482 60.1089 26.7051 59.7134C26.262 59.3179 25.9492 58.803 25.8065 58.2339C25.6637 57.6648 25.6973 57.0671 25.903 56.5167L29.6881 46.2904C29.9885 45.5209 30.2258 44.7294 30.3979 43.9232C30.5508 43.1047 30.6602 42.279 30.7254 41.4495C30.871 39.9523 30.9741 38.3307 31.053 36.7743C31.1318 35.2179 31.1864 33.7088 31.2289 32.4601C31.2835 30.9037 30.8528 30.8031 29.5729 30.5072L29.306 30.448L18.3873 28.4418C17.9946 28.3742 17.6195 28.2318 17.2833 28.0226C16.9471 27.8134 16.6564 27.5416 16.428 27.2227C16.0887 26.7396 15.904 26.1692 15.8972 25.5836C15.8904 24.998 16.0618 24.4236 16.3898 23.9332C16.7178 23.4427 17.1876 23.0582 17.7397 22.8284C18.2918 22.5986 18.9014 22.5338 19.4913 22.6422L31.2228 24.7904C31.6899 24.8318 32.1448 24.8851 32.624 24.9384C34.0677 25.1314 35.5223 25.2361 36.9794 25.252C38.7931 25.2175 40.6035 25.0851 42.4023 24.8555C42.9482 24.7963 43.4638 24.7312 43.9794 24.6839L55.0497 22.6599C55.8351 22.5011 56.653 22.6521 57.3245 23.0801C57.6573 23.2998 57.942 23.5818 58.1621 23.9098C58.3822 24.2377 58.5334 24.6051 58.6067 24.9905C58.6801 25.3759 58.6743 25.7718 58.5895 26.1549C58.5047 26.5381 58.3428 26.9011 58.113 27.2227C57.8877 27.5436 57.5998 27.818 57.2657 28.0303C56.9316 28.2425 56.5578 28.3884 56.1659 28.4596L45.5869 30.4007C45.2351 30.4776 44.9197 30.5308 44.6406 30.5723C43.5366 30.7557 42.9907 30.8504 43.0574 32.3832C43.106 33.5017 43.2455 34.8391 43.4274 36.2358C43.6397 37.875 43.9188 39.6149 44.2099 41.2069C44.398 42.2543 44.5739 43.0947 44.8165 43.8995C45.0592 44.7044 45.2957 45.527 45.6597 46.5153L49.366 56.5167C49.5717 57.0671 49.6053 57.6648 49.4625 58.2339C49.3197 58.803 49.007 59.3179 48.5639 59.7134C48.1208 60.1089 47.5674 60.3672 46.9737 60.4555C46.38 60.5438 45.7728 60.4582 45.229 60.2095C44.867 60.046 44.5421 59.8136 44.2734 59.526C44.0047 59.2385 43.7975 58.9014 43.664 58.5347L38.2168 43.9291L37.6102 42.8461L37.0036 43.8995H37.034ZM37.2705 12.2266C38.5098 12.2255 39.711 12.6438 40.6696 13.41C41.6282 14.1762 42.2848 15.243 42.5276 16.4286C42.7703 17.6142 42.5841 18.8453 42.0008 19.912C41.4174 20.9786 40.473 21.815 39.3284 22.2785C38.1838 22.742 36.91 22.8039 35.7238 22.4537C34.5377 22.1036 33.5127 21.363 32.8235 20.3582C32.1344 19.3534 31.8237 18.1465 31.9443 16.9432C32.065 15.74 32.6097 14.6147 33.4854 13.7593C33.9815 13.2729 34.5714 12.887 35.221 12.624C35.8706 12.3609 36.5672 12.2259 37.2705 12.2266ZM59.3202 14.8482C54.2254 9.86115 47.5157 6.75206 40.3345 6.05082C33.1533 5.34959 25.945 7.09961 19.9382 11.0026C13.9314 14.9057 9.49783 20.7201 7.39305 27.4551C5.28827 34.1901 5.64256 41.4288 8.39554 47.9374C11.1485 54.4461 16.1298 59.822 22.4905 63.1489C28.8511 66.4757 36.1975 67.5477 43.2775 66.1821C50.3576 64.8165 56.7332 61.0978 61.3176 55.6598C65.9021 50.2219 68.4118 43.4011 68.419 36.36C68.4281 32.3666 67.629 28.4107 66.0676 24.7192C64.5062 21.0278 62.2132 17.6733 59.3202 14.8482Z" fill="#B0C8F5"/>
</svg>
