<svg preserveAspectRatio="none" width="100%" height="100%" overflow="visible" style="display: block;" viewBox="0 0 95.7339 65.8284" fill="none" xmlns="http://www.w3.org/2000/svg">
<g id="Group 55">
<path id="Vector" d="M29.5292 6.54113H59.0677C59.8439 6.54113 60.4729 5.91194 60.4729 5.13576C60.4729 4.35957 59.8439 3.73039 59.0677 3.73039H29.5292C28.7531 3.73039 28.1239 4.35957 28.1239 5.13576C28.1239 5.91194 28.7531 6.54113 29.5292 6.54113Z" fill="#B0C8F5"/>
<path id="Vector_2" d="M3.11118 20.282H32.6494C33.4256 20.282 34.0548 19.6529 34.0548 18.8767C34.0548 18.1005 33.4256 17.4715 32.6494 17.4715H3.11118C2.335 17.4715 1.70581 18.1005 1.70581 18.8767C1.70581 19.6529 2.335 20.282 3.11118 20.282Z" fill="#B0C8F5"/>
<path id="Vector_3" d="M11.04 34.7411C11.04 35.5173 11.6692 36.1467 12.4454 36.1467H41.9837C42.7599 36.1467 43.389 35.5173 43.389 34.7411C43.389 33.9649 42.7599 33.336 41.9837 33.336H12.4454C11.6692 33.336 11.04 33.9649 11.04 34.7411Z" fill="#B0C8F5"/>
<path id="Vector_4" d="M27.9457 51.0739H1.40537C0.629188 51.0739 0 51.7029 0 52.4791C0 53.2552 0.629188 53.8844 1.40537 53.8844H27.9457C28.7219 53.8844 29.351 53.2552 29.351 52.4791C29.351 51.7029 28.7219 51.0739 27.9457 51.0739Z" fill="#B0C8F5"/>
<path id="Vector_5" d="M75.7005 15.3523C79.9395 15.3523 83.3761 11.9153 83.3761 7.67607C83.3761 3.4368 79.9394 1.41144e-05 75.7005 1.41144e-05C71.4604 1.41144e-05 68.0232 3.437 68.0232 7.67607C68.023 11.9153 71.4602 15.3523 75.7005 15.3523Z" fill="#B0C8F5"/>
<path id="Vector_6" d="M88.3265 13.1415C83.9189 19.3155 78.0168 20.0304 71.6656 16.26C71.2333 16.0037 69.3151 14.9469 68.8904 14.6945C58.6733 8.62909 48.4681 11.0077 41.6242 20.5919C38.7159 24.6683 45.4423 28.5321 48.318 24.5032C51.8541 19.5514 56.3504 18.1185 61.2679 19.687C58.75 24.0575 56.5486 28.4016 53.4423 34.5734C50.3353 40.7452 43.4752 45.6739 36.8837 41.819C32.1275 39.0391 27.8384 45.8719 32.5802 48.6432C41.5792 53.9026 52.1308 50.673 57.5173 43.8363C57.7042 43.9362 57.9016 44.0263 58.1183 44.1021C62.5187 45.6352 68.2869 49.7169 70.0446 51.1635C71.8016 52.61 74.8206 59.9793 76.6134 63.6821C78.7882 68.1749 85.812 64.9026 83.629 60.3907C81.5968 56.1897 78.1857 47.8052 75.5251 45.6839C73.3909 43.9825 69.2474 40.8162 65.7331 39.0199C68.1107 34.4146 70.5862 29.859 73.1923 25.3821C81.4993 27.9273 89.3951 24.9291 95.0186 17.0519C97.9292 12.9761 91.2044 9.11227 88.3265 13.1415Z" fill="#B0C8F5"/>
</g>
</svg>
