<svg preserveAspectRatio="none" width="100%" height="100%" overflow="visible" style="display: block;" viewBox="0 0 65.8288 65.8288" fill="none" xmlns="http://www.w3.org/2000/svg">
<path id="Vector" d="M37.5444 14.315V3.42858C37.5444 1.45646 36.0879 0 34.2008 0H31.628C29.7409 0 28.2844 1.45646 28.2844 3.42858V14.315C28.2844 16.2021 29.7409 17.7436 31.628 17.7436H34.2008C36.0879 17.7436 37.5444 16.1994 37.5444 14.315ZM23.0565 16.3722L15.3409 8.74426C14.0544 7.45786 11.8272 7.45786 10.5408 8.74426L8.74152 10.5436C7.45511 11.83 7.45511 14.0572 8.74152 15.3436L16.3694 23.0593C17.6558 24.3457 19.9708 24.3457 21.2545 23.0593L23.0538 21.26C24.3402 19.9736 24.3402 17.6586 23.0538 16.3749L23.0565 16.3722ZM49.4566 23.0565L57.0845 15.3409C58.3709 14.0545 58.3709 11.8272 57.0845 10.5408L55.2852 8.74152C53.9988 7.45511 51.7716 7.45511 50.4852 8.74152L42.7695 16.3694C41.4831 17.6558 41.4831 19.9708 42.7695 21.2545L44.5688 23.0538C45.8552 24.3402 48.1702 24.3402 49.4539 23.0538L49.4566 23.0565ZM3.42858 37.5444H14.315C16.2021 37.5444 17.7436 36.0879 17.7436 34.2008V31.543C17.7436 29.6559 16.1994 28.2844 14.315 28.2844H3.42858C1.45646 28.2844 0 29.6559 0 31.543V34.2008C0 36.0879 1.45646 37.5444 3.42858 37.5444ZM51.5138 37.5444H62.4002C64.3723 37.5444 65.8288 36.0879 65.8288 34.2008V31.543C65.8288 29.6559 64.3723 28.2844 62.4002 28.2844H51.5138C49.6267 28.2844 48.0852 29.6559 48.0852 31.543V34.2008C48.0852 36.0879 49.6294 37.5444 51.5138 37.5444ZM15.3436 56.9995L23.0593 49.3716C24.3457 48.0852 24.3457 45.858 23.0593 44.5716L21.26 42.6845C19.9736 41.3981 17.6586 41.3981 16.3749 42.6845L8.747 50.4852C7.4606 51.7716 7.4606 53.9988 8.747 55.2852L10.5463 56.9995C11.8327 58.2859 14.0572 58.2859 15.3436 56.9995ZM57.0873 50.4852L49.4594 42.6845C48.173 41.3981 45.858 41.3981 44.5743 42.6845L42.775 44.5716C41.4886 45.858 41.4886 48.0852 42.775 49.3716L50.4907 56.9995C51.7771 58.2859 54.0043 58.2859 55.2907 56.9995L57.09 55.2852C58.3764 53.9988 58.3737 51.7716 57.0873 50.4852ZM37.5444 62.4002V51.5138C37.5444 49.6267 36.0879 48.0852 34.2008 48.0852H31.628C29.7409 48.0852 28.2844 49.6294 28.2844 51.5138V62.4002C28.2844 64.3723 29.7409 65.8288 31.628 65.8288H34.2008C36.0879 65.8288 37.5444 64.3723 37.5444 62.4002Z" fill="#B0C8F5"/>
</svg>
