<svg preserveAspectRatio="none" width="100%" height="100%" overflow="visible" style="display: block;" viewBox="0 0 73.9737 71.6437" fill="none" xmlns="http://www.w3.org/2000/svg">
<path id="user--experience-design_1_" d="M52.6433 63.6814C52.9028 63.5833 53.2042 63.6781 53.3582 63.9216L54.2556 65.3406C54.3402 65.4744 54.3676 65.6364 54.3328 65.7908C54.2979 65.9452 54.2029 66.0794 54.0691 66.1638C49.0758 69.3152 43.0137 71.0466 36.9871 71.0466C30.8077 71.0466 24.8965 69.3579 19.9002 66.157C19.767 66.0716 19.6732 65.9366 19.6394 65.782C19.6057 65.6272 19.6348 65.465 19.7205 65.3318L20.6267 63.9226L20.7019 63.8279C20.8954 63.6294 21.2084 63.5876 21.4509 63.7429C25.9758 66.64 31.3463 68.1736 36.989 68.1736C42.4813 68.1736 48.0056 66.5966 52.5359 63.7361L52.6433 63.6814ZM10.1882 44.9011C10.611 44.9012 11.0849 45.0801 11.3728 45.4968L11.4275 45.5838L19.5838 59.5652L19.6687 59.7361C19.8398 60.1459 19.8105 60.6153 19.5886 61.0037C19.3332 61.4504 18.8587 61.7252 18.3445 61.7254H2.032C1.5176 61.7254 1.04236 61.4506 0.786878 61.0037C0.53343 60.5601 0.53121 60.0106 0.791761 59.5652L8.94801 45.5838L9.0027 45.4968C9.29063 45.0798 9.76536 44.9011 10.1882 44.9011ZM64.9509 44.8728C69.5961 44.873 73.3767 48.6544 73.3767 53.2996C73.3766 57.9445 69.5984 61.7252 64.9509 61.7254C60.3033 61.7254 56.5243 57.9446 56.5242 53.2996C56.5242 48.6543 60.3057 44.8728 64.9509 44.8728ZM64.9509 47.7439C61.8875 47.7439 59.3953 50.2361 59.3953 53.2996C59.3954 56.3629 61.8875 58.8552 64.9509 58.8552C68.0142 58.8551 70.5065 56.3628 70.5066 53.2996C70.5066 50.2362 68.0143 47.7441 64.9509 47.7439ZM4.53102 58.8552H15.8445L10.1873 49.158L4.53102 58.8552ZM36.991 23.9002C41.4472 23.9002 45.0708 27.5223 45.0711 31.9763C45.0711 34.127 44.211 36.1423 42.7586 37.6257C47.1797 39.7797 50.0808 44.2796 50.0808 49.3777V53.2996C50.0807 53.6289 49.8135 53.8963 49.4841 53.8963H47.7996C47.4702 53.8963 47.203 53.6289 47.2029 53.2996V49.3777C47.2029 44.6201 43.976 40.5355 39.3543 39.4412V39.4402C38.7922 39.3081 38.369 38.8519 38.2722 38.2918L38.2566 38.1785C38.201 37.5673 38.5383 36.9848 39.1013 36.7332H39.1023C40.9822 35.8967 42.1951 34.0288 42.1951 31.9763C42.1948 29.1065 39.8589 26.7713 36.989 26.7713C34.1191 26.7713 31.7832 29.1065 31.783 31.9763C31.783 34.0283 32.9976 35.8965 34.8777 36.7332H34.8787C35.4408 36.9843 35.7792 37.5665 35.7234 38.1765C35.6674 38.7891 35.2261 39.2993 34.6257 39.4402C30.0014 40.537 26.7752 44.6205 26.7752 49.3777V53.2996C26.775 53.6289 26.5079 53.8963 26.1785 53.8963H24.5007C24.1714 53.8962 23.9042 53.6289 23.9041 53.2996V49.3777C23.9041 44.2777 26.8048 39.7796 31.2254 37.6257C29.7733 36.1424 28.9148 34.1268 28.9148 31.9763C28.9151 27.5225 32.5371 23.9004 36.991 23.9002ZM22.3396 11.1619C22.4799 11.0888 22.6438 11.0744 22.7947 11.1218C22.9456 11.1693 23.0712 11.2755 23.1443 11.4158L23.9207 12.905C24.0726 13.1971 23.9596 13.5575 23.6677 13.7097C14.082 18.7058 8.12776 28.5173 8.1277 39.3172C8.1277 40.0633 8.15775 40.8041 8.21266 41.5408C8.2369 41.869 7.99013 42.1548 7.66188 42.1795L5.98903 42.3054C5.66099 42.3301 5.37474 42.0845 5.34938 41.7566C5.28761 40.9512 5.2566 40.1408 5.2566 39.3172C5.25667 27.443 11.803 16.6546 22.3396 11.1619ZM51.1736 11.2019C51.3246 11.1543 51.4883 11.1688 51.6287 11.242C62.1688 16.7364 68.7165 27.493 68.7166 39.3172C68.7166 40.1408 68.6856 40.9512 68.6238 41.7566C68.5984 42.0849 68.3115 42.3305 67.9832 42.3054L66.3084 42.1775C66.1505 42.1654 66.0032 42.0907 65.9002 41.9705C65.7972 41.8502 65.7463 41.6937 65.7586 41.5359C65.8155 40.8043 65.8435 40.0625 65.8435 39.3152C65.8435 28.5678 59.8926 18.7855 50.3035 13.7888C50.0117 13.6366 49.8988 13.2762 50.0505 12.9841L50.824 11.4959L50.8884 11.3972C50.9617 11.306 51.0604 11.2377 51.1736 11.2019ZM43.9773 0.596449C44.7705 0.596449 45.4128 1.23881 45.4129 2.032V16.0144C45.4126 16.8074 44.7704 17.45 43.9773 17.45H29.9959C29.2028 17.45 28.5605 16.8074 28.5603 16.0144V2.032C28.5603 1.23881 29.2027 0.596449 29.9959 0.596449H43.9773ZM31.4314 14.5789H42.5418V3.46754H31.4314V14.5789Z" fill="#B0C8F5" stroke="var(--stroke-0, #BBD1FD)" stroke-width="1.19313" stroke-linejoin="round"/>
</svg>
