<svg preserveAspectRatio="xMidYMid meet"  overflow="visible" style="display: block;" viewBox="0 0 25 13.0645" fill="none" xmlns="http://www.w3.org/2000/svg">
<g id="Vector">
<path d="M24.6433 4.4534L13.0645 8.01612L13.9552 10.6882L24.6433 4.4534Z" fill="#002B82"/>
<path d="M24.539 4.11243C24.7118 4.05951 24.8978 4.14516 24.9704 4.31074C25.0426 4.47634 24.9786 4.67023 24.8225 4.7613L14.1344 10.9961C14.0419 11.0499 13.9301 11.0597 13.8299 11.0222C13.7297 10.9844 13.6517 10.9028 13.6177 10.8012L12.727 8.12919C12.6967 8.03818 12.704 7.93788 12.7479 7.85259C12.7918 7.76753 12.8686 7.70331 12.9601 7.67515L24.539 4.11243ZM13.0645 8.01612L13.9552 10.6882L24.6433 4.4534L13.0645 8.01612Z" fill="#002B82"/>
<path d="M11.8763 0C15.61 0 18.9399 1.72424 21.1171 4.41861L18.6225 5.18752C16.9012 3.4515 14.5144 2.37631 11.8763 2.37631C6.62956 2.37663 2.37631 6.62949 2.37631 11.8763C2.376 12.5319 1.84384 13.0645 1.18815 13.0645C0.532739 13.0641 0.000308472 12.5317 0 11.8763C1.22411e-07 5.31773 5.3178 0.000323345 11.8763 0Z" fill="#002B82"/>
<path d="M22.641 6.85754C23.3531 8.38223 23.7526 10.0826 23.7526 11.8763C23.7523 12.5319 23.2202 13.0645 22.5645 13.0645C21.9091 13.0641 21.3766 12.5317 21.3763 11.8763C21.3763 10.5193 21.0904 9.22904 20.5778 8.06135L22.641 6.85754Z" fill="#002B82"/>
<path d="M14.8458 9.79748C14.8458 11.2732 13.6495 12.4695 12.1738 12.4695C10.6981 12.4695 9.50175 11.2732 9.50175 9.79748C9.50175 8.32176 10.6981 7.12544 12.1738 7.12544C13.6495 7.12544 14.8458 8.32176 14.8458 9.79748Z" fill="#002B82"/>
</g>
</svg>
