<svg preserveAspectRatio="xMidYMid meet"  overflow="visible" style="display: block;" viewBox="0 0 20 20" fill="none" xmlns="http://www.w3.org/2000/svg">
<g id="alert-triangle">
<path id="Vector" d="M8.57494 3.2168L1.51661 15.0001C1.37108 15.2522 1.29408 15.5379 1.29326 15.8289C1.29245 16.1199 1.36785 16.4061 1.51196 16.6589C1.65607 16.9117 1.86388 17.1224 2.1147 17.27C2.36551 17.4176 2.65061 17.4969 2.94161 17.5001H17.0583C17.3493 17.4969 17.6344 17.4176 17.8852 17.27C18.136 17.1224 18.3438 16.9117 18.4879 16.6589C18.632 16.4061 18.7074 16.1199 18.7066 15.8289C18.7058 15.5379 18.6288 15.2522 18.4833 15.0001L11.4249 3.2168C11.2764 2.97189 11.0672 2.7694 10.8176 2.62887C10.568 2.48834 10.2864 2.41452 9.99994 2.41452C9.71349 2.41452 9.43188 2.48834 9.18228 2.62887C8.93267 2.7694 8.7235 2.97189 8.57494 3.2168Z" stroke="#DF3F00" stroke-width="1.66667" stroke-linecap="round" stroke-linejoin="round"/>
<path id="Vector_2" d="M10 7.50009V10.8334" stroke="#DF3F00" stroke-width="1.66667" stroke-linecap="round" stroke-linejoin="round"/>
<path id="Vector_3" d="M10 14.1668H10.0077" stroke="#DF3F00" stroke-width="1.66667" stroke-linecap="round" stroke-linejoin="round"/>
</g>
</svg>
