<svg preserveAspectRatio="xMidYMid meet"  overflow="visible" style="display: block;" viewBox="0 0 22 22" fill="none" xmlns="http://www.w3.org/2000/svg">
<g id="heart" clip-path="url(#clip0_0_160)">
<path id="Vector" d="M19.1027 4.2259C18.6345 3.75748 18.0786 3.3859 17.4668 3.13239C16.855 2.87887 16.1992 2.74839 15.5369 2.74839C14.8746 2.74839 14.2188 2.87887 13.607 3.13239C12.9951 3.3859 12.4393 3.75748 11.9711 4.2259L10.9994 5.19756L10.0277 4.2259C9.08201 3.28018 7.79934 2.74888 6.46189 2.74888C5.12445 2.74888 3.84178 3.28018 2.89606 4.2259C1.95034 5.17161 1.41904 6.45428 1.41904 7.79173C1.41904 9.12918 1.95034 10.4118 2.89606 11.3576L3.86773 12.3292L10.9994 19.4609L18.1311 12.3292L19.1027 11.3576C19.5711 10.8894 19.9427 10.3335 20.1962 9.72164C20.4497 9.1098 20.5802 8.45401 20.5802 7.79173C20.5802 7.12945 20.4497 6.47366 20.1962 5.86182C19.9427 5.24998 19.5711 4.69409 19.1027 4.2259Z" stroke="#0338A2" stroke-width="2.03704" stroke-linecap="round" stroke-linejoin="round"/>
</g>
<defs>
<clipPath id="clip0_0_160">
<rect width="22" height="22" fill="white"/>
</clipPath>
</defs>
</svg>
