<svg preserveAspectRatio="xMidYMid meet"  overflow="visible" style="display: block;" viewBox="0 0 22 22" fill="none" xmlns="http://www.w3.org/2000/svg">
<g id="Group 59" transform="rotate(180, 11, 11)">
<path id="Vector" d="M11 22C17.0751 22 22 17.0751 22 11C22 4.92487 17.0751 0 11 0C4.92487 0 0 4.92487 0 11C0 17.0751 4.92487 22 11 22Z" fill="#0338A2"/>
<path id="?" d="M12.7117 10.2844C12.7117 10.5929 12.6719 10.8715 12.5923 11.1203C12.5127 11.369 12.3784 11.6078 12.1893 11.8367C12.0003 12.0655 11.7366 12.2944 11.3983 12.5232C11.1197 12.7222 10.9058 12.8964 10.7565 13.0456C10.5973 13.1949 10.4928 13.3441 10.4431 13.4934C10.3834 13.6526 10.3535 13.8267 10.3535 14.0158C10.3535 14.2944 10.4431 14.5033 10.6222 14.6426C10.8013 14.7919 11.0351 14.8665 11.3237 14.8665C11.662 14.8665 12.0351 14.8018 12.4431 14.6725C12.8411 14.5431 13.264 14.3591 13.7117 14.1203L14.667 15.8964C14.1595 16.1949 13.6122 16.4287 13.0252 16.5979C12.4381 16.777 11.8013 16.8665 11.1147 16.8665C10.0799 16.8665 9.27889 16.6178 8.71173 16.1203C8.13462 15.6327 7.84606 15.0009 7.84606 14.2247C7.84606 13.8267 7.90576 13.4735 8.02516 13.165C8.13462 12.8665 8.30875 12.5829 8.54755 12.3143C8.77641 12.0456 9.08486 11.777 9.47292 11.5083C9.72168 11.3093 9.92069 11.1402 10.0699 11.0009C10.2192 10.8615 10.3237 10.7222 10.3834 10.5829C10.4331 10.4536 10.458 10.2944 10.458 10.1053L10.458 9.70234L12.7117 9.70234L12.7117 10.2844ZM12.9505 7.17996C12.9505 7.66752 12.8112 8.00583 12.5326 8.19488C12.2441 8.39389 11.9008 8.49339 11.5028 8.49339C11.1147 8.49339 10.7814 8.39389 10.5028 8.19488C10.2242 8.00583 10.0849 7.66752 10.0849 7.17996C10.0849 6.72224 10.2242 6.38891 10.5028 6.17996C10.7814 5.971 11.1147 5.86652 11.5028 5.86652C11.9008 5.86652 12.2441 5.971 12.5326 6.17996C12.8112 6.38891 12.9505 6.72224 12.9505 7.17996Z" fill="#FAFCFF"/>
</g>
</svg>
