<svg preserveAspectRatio="none" width="100%" height="100%" overflow="visible" style="display: block;" viewBox="0 0 81.5626 68.1935" fill="none" xmlns="http://www.w3.org/2000/svg">
<g id="Group">
<path id="Vector" fill-rule="evenodd" clip-rule="evenodd" d="M43.5527 13.8804V62.166H67.2043C67.4566 62.166 67.6557 62.3718 67.6557 62.6241V67.7354C67.6557 67.9877 67.4499 68.1935 67.2043 68.1935H15.1615C14.9092 68.1935 14.7034 67.9877 14.7034 67.7354V62.6241C14.7034 62.3718 14.9092 62.166 15.1615 62.166H38.8131V13.9003C36.7553 13.1834 35.1223 11.557 34.4054 9.49922H19.4497V11.7761C19.4497 12.0283 19.2439 12.2275 18.9983 12.2275H15.1615C14.9092 12.2275 14.7034 12.0217 14.7034 11.7761V9.49922H10.8998C10.6077 9.49922 10.3687 9.29344 10.3687 9.04783V5.20436C10.3687 4.95211 10.6077 4.74633 10.8998 4.74633H34.4186C35.4011 1.98487 38.0431 7.08765e-05 41.1497 7.08765e-05C44.2563 7.08765e-05 46.8983 1.98487 47.8807 4.75296H71.466C71.7581 4.75296 71.997 4.95874 71.997 5.21099V9.04783C71.997 9.30007 71.7581 9.49922 71.466 9.49922H67.1778V11.7761C67.1778 12.0283 66.972 12.2275 66.7264 12.2275H62.8895C62.6373 12.2275 62.4315 12.0217 62.4315 11.7761V9.49922H47.9007C47.1904 11.5371 45.584 13.1502 43.5527 13.8804ZM66.1555 14.8031L81.3634 41.6742C81.4962 41.9065 81.5559 42.1588 81.5493 42.4044H81.5626C81.5626 42.4376 81.5626 42.4707 81.5626 42.5039C81.5626 48.9031 74.0283 54.0941 64.7349 54.0941C55.5411 54.0941 48.0733 49.0159 47.9139 42.7097C47.8874 42.6035 47.8741 42.484 47.8741 42.3712C47.8741 42.0791 47.967 41.8003 48.1197 41.5746L63.6728 14.7367C64.0645 14.0596 64.9274 13.8273 65.6045 14.2189C65.8501 14.3716 66.036 14.5707 66.1555 14.8031ZM66.2152 20.6513V40.9639H77.7125L66.2152 20.6513ZM63.5069 40.9573V20.6844L51.7508 40.9573H63.5069ZM18.2814 14.8031L33.4893 41.6742C33.6221 41.9065 33.6818 42.1588 33.6752 42.4044H33.6885C33.6885 42.4376 33.6885 42.4707 33.6885 42.5039C33.6885 48.9031 26.1542 54.0941 16.8608 54.0941C7.66703 54.0941 0.199144 49.0159 0.0398287 42.7097C0.0132762 42.6101 0 42.4973 0 42.3778C0 42.0857 0.0929337 41.8069 0.24561 41.5812L15.7987 14.7433C16.1904 14.0662 17.0533 13.8339 17.7304 14.2256C17.976 14.3716 18.1619 14.5707 18.2814 14.8031ZM18.3411 20.6513V40.9639H29.8383L18.3411 20.6513ZM15.6261 40.9573V20.6844L3.87666 40.9573H15.6261ZM41.1497 4.02941C42.869 4.02941 44.263 5.42341 44.263 7.14269C44.263 8.86196 42.869 10.256 41.1497 10.256C39.4304 10.256 38.0364 8.86196 38.0364 7.14269C38.0364 5.42341 39.4304 4.02941 41.1497 4.02941Z" fill="#B0C8F5"/>
</g>
</svg>
