<svg preserveAspectRatio="none" width="100%" height="100%" overflow="visible" style="display: block;" viewBox="0 0 67.4854 71.7617" fill="none" xmlns="http://www.w3.org/2000/svg">
<path id="Vector" d="M9.16235 19.5812C10.3276 19.5812 11.22 20.4735 11.22 21.6388V54.2912C14.8742 55.1036 17.8546 58.5221 17.8547 62.5265C17.8547 67.3696 14.0054 71.2189 9.16235 71.2189C4.31322 71.2187 0.543207 67.3631 0.543207 62.5265C0.543324 58.5363 3.18238 55.0889 7.10571 54.2843V21.6388C7.10571 20.4737 7.99728 19.5815 9.16235 19.5812ZM9.16235 57.9504C6.45378 57.9506 4.58631 60.0662 4.58618 62.5265C4.58618 64.9818 6.52077 67.1034 9.16235 67.1037C11.8241 67.1037 13.7395 65.2502 13.7395 62.5265C13.7394 61.1406 13.2636 60.0038 12.4748 59.215C11.6859 58.4261 10.5485 57.9504 9.16235 57.9504ZM53.9768 28.6603C58.1213 26.4347 63.27 27.7409 65.802 31.8839L65.8137 31.9035C68.118 36.0513 66.8086 41.2045 62.6653 43.7365L62.6418 43.7502C59.2053 45.6178 54.9478 44.7994 52.0618 42.1437L22.344 59.3908L22.3293 59.3996L22.3137 59.4074C21.9323 59.598 21.4502 59.6967 20.9485 59.5988C20.4368 59.4989 19.944 59.2018 19.5452 58.6701L19.5081 58.6213L19.4836 58.5646C19.305 58.1627 19.2029 57.6658 19.3137 57.1486C19.4271 56.6195 19.7511 56.1281 20.3196 55.7345L20.3372 55.7218L20.3567 55.7111L49.9875 38.5451C48.9942 34.8164 50.5541 30.8899 53.9368 28.6838L53.9563 28.6711L53.9768 28.6603ZM62.2122 33.9728C60.8306 31.8021 58.1237 31.0106 56.0393 32.3371C53.8728 33.7158 53.0736 36.3503 54.4026 38.5099C55.7841 40.6809 58.4919 41.4732 60.5764 40.1466C62.7474 38.7651 63.5387 36.0574 62.2122 33.9728ZM3.00219 4.84196C5.45501 0.828252 10.3643 -0.523805 14.4368 1.41911L14.8284 1.61735L14.8489 1.62907L14.8684 1.64176C18.2691 3.85992 19.6042 7.79556 18.5354 11.506L48.2317 28.6681L48.2473 28.6779C49.0906 29.205 49.3946 30.3613 49.0559 31.4621C48.958 31.7801 48.793 32.0452 48.5608 32.2423C48.33 32.4382 48.062 32.5418 47.7961 32.5861C47.2844 32.6713 46.7309 32.5461 46.2737 32.3937L46.2209 32.3761L46.1721 32.3488L16.4954 15.1261C13.8864 18.0735 9.60551 18.5372 5.96313 16.716L5.93383 16.7013L5.90746 16.6838C2.09327 14.1664 0.448846 9.02048 3.00219 4.84196ZM12.7717 5.29899C10.599 3.95703 7.676 4.7749 6.30395 6.93082C5.00615 8.97022 6.00553 11.686 8.29418 13.0998L8.30102 13.1037C10.3887 14.4321 13.089 13.6339 14.3957 11.4777C15.6733 9.3694 14.986 6.66688 12.7717 5.29899Z" fill="#B0C8F5" stroke="var(--stroke-0, #BBD1FD)" stroke-width="1.08618"/>
</svg>
