<svg preserveAspectRatio="none" width="100%" height="100%" overflow="visible" style="display: block;" viewBox="0 0 65.8288 65.8288" fill="none" xmlns="http://www.w3.org/2000/svg">
<g id="checklist-svgrepo-com 1" clip-path="url(#clip0_0_1461)">
<path id="Vector" d="M52.8005 20.7826C52.8005 21.9188 53.7216 22.8398 54.8577 22.8398C55.9941 22.8398 56.9148 21.9188 56.9148 20.7826H52.8005ZM20.6965 59.6575C21.8327 59.6575 22.7537 58.7365 22.7537 57.6004C22.7537 56.4643 21.8327 55.5432 20.6965 55.5432V59.6575ZM56.9148 20.7826V13.8973H52.8005V20.7826H56.9148ZM55.5171 10.5114L47.1461 2.09993L44.2299 5.0022L52.6009 13.4136L55.5171 10.5114ZM43.7439 0.685884H6.85764V4.80018H43.7439V0.685884ZM0.686188 6.85731L0.686084 53.4861H4.80038L4.80049 6.85733L0.686188 6.85731ZM6.85753 59.6575H20.6965V55.5432H6.85753V59.6575ZM0.686084 53.4861C0.686078 56.8944 3.44913 59.6575 6.85753 59.6575V55.5432C5.7214 55.5432 4.80038 54.6222 4.80038 53.4861H0.686084ZM6.85764 0.685884C3.44924 0.685884 0.686196 3.44894 0.686188 6.85731L4.80049 6.85733C4.80049 5.72121 5.72151 4.80018 6.85764 4.80018V0.685884ZM47.1461 2.09993C46.2451 1.19477 45.0207 0.685884 43.7439 0.685884V4.80018C43.9263 4.80018 44.101 4.87287 44.2299 5.0022L47.1461 2.09993ZM56.9148 13.8973C56.9148 12.6283 56.4123 11.4108 55.5171 10.5114L52.6009 13.4136C52.729 13.5421 52.8005 13.716 52.8005 13.8973H56.9148Z" fill="#B0C8F5"/>
<path id="Vector_2" d="M13.715 16.4574H42.7214" stroke="var(--stroke-0, #BBD1FD)" stroke-width="4.1143" stroke-linecap="round"/>
<path id="Vector_3" d="M13.715 30.1719H28.0805" stroke="var(--stroke-0, #BBD1FD)" stroke-width="4.1143" stroke-linecap="round"/>
<path id="Vector_4" d="M13.715 43.8856H19.8717" stroke="var(--stroke-0, #BBD1FD)" stroke-width="4.1143" stroke-linecap="round"/>
<path id="Vector_5" d="M48.0005 63.086C56.3321 63.086 63.0862 56.3319 63.0862 48.0003C63.0862 39.6686 56.3321 32.9145 48.0005 32.9145C39.6688 32.9145 32.9147 39.6686 32.9147 48.0003C32.9147 56.3319 39.6688 63.086 48.0005 63.086Z" stroke="var(--stroke-0, #BBD1FD)" stroke-width="4.1143"/>
<path id="Vector_6" d="M42.5145 49.3714L45.484 52.3408C46.0833 52.9401 47.0773 52.8578 47.5699 52.1683L53.486 43.8856" stroke="var(--stroke-0, #BBD1FD)" stroke-width="4.1143" stroke-linecap="round" stroke-linejoin="round"/>
</g>
<defs>
<clipPath id="clip0_0_1461">
<rect width="65.8288" height="65.8288" fill="white"/>
</clipPath>
</defs>
</svg>
