<svg preserveAspectRatio="none" width="100%" height="100%" overflow="visible" style="display: block;" viewBox="0 0 79.0906 84.6758" fill="none" xmlns="http://www.w3.org/2000/svg">
<g id="Group">
<path id="Vector" d="M26.1673 44.1022C28.5194 31.7536 31.7536 28.5194 44.1022 26.1673C45.5722 25.8733 46.4543 24.6972 46.4543 23.2271C46.4543 21.7571 45.5722 20.581 44.1022 20.287C31.7536 17.9349 28.5194 14.7007 26.1673 2.35212C25.8733 0.882044 24.6972 9.50269e-07 23.2271 9.50269e-07C21.7571 9.50269e-07 20.581 0.882044 20.287 2.35212C17.9349 14.7007 14.7007 17.9349 2.35212 20.287C1.17606 20.581 0 21.7571 0 23.2271C0 24.6972 0.882044 25.8733 2.35212 26.1673C14.7007 28.5194 17.9349 31.7536 20.287 44.1022C20.581 45.5722 21.7571 46.4543 23.2271 46.4543C24.6972 46.4543 25.8733 45.2782 26.1673 44.1022Z" fill="#B0C8F5"/>
<path id="Vector_2" d="M55.5682 64.6828C47.3358 62.9188 45.5717 61.1547 43.8076 52.9223C43.5136 51.4522 42.3376 50.5702 40.8675 50.5702C39.3974 50.5702 38.2214 51.4522 37.9274 52.9223C36.1633 61.1547 34.3992 62.9188 26.1668 64.6828C24.6967 64.9769 23.8147 66.1529 23.8147 67.623C23.8147 69.0931 24.6967 70.2691 26.1668 70.5631C34.3992 72.3272 36.1633 74.0913 37.9274 82.3237C38.2214 83.7938 39.3974 84.6758 40.8675 84.6758C42.3376 84.6758 43.5136 83.7938 43.8076 82.3237C45.5717 74.0913 47.3358 72.3272 55.5682 70.5631C57.0383 70.2691 57.9203 69.0931 57.9203 67.623C57.9203 66.1529 56.7443 64.9769 55.5682 64.6828Z" fill="#B0C8F5"/>
<path id="Vector_3" d="M76.7385 35.2812C70.2701 34.1052 68.8001 32.6351 67.624 26.1668C67.33 24.6967 66.1539 23.8147 64.6839 23.8147C63.2138 23.8147 62.0377 24.6967 61.7437 26.1668C60.5677 32.6351 59.0976 34.1052 52.6293 35.2812C51.1592 35.5752 50.2772 36.7513 50.2772 38.2214C50.2772 39.6914 51.1592 40.8675 52.6293 41.1615C59.0976 42.3376 60.5677 43.8076 61.7437 50.276C62.0377 51.746 63.2138 52.6281 64.6839 52.6281C66.1539 52.6281 67.33 51.746 67.624 50.276C68.8001 43.8076 70.2701 42.3376 76.7385 41.1615C78.2085 40.8675 79.0906 39.6914 79.0906 38.2214C79.0906 36.7513 78.2085 35.5752 76.7385 35.2812Z" fill="#B0C8F5"/>
<path id="Vector_4" d="M7.6441 59.6847C6.76205 58.8026 5.586 58.5086 4.40994 59.0967C4.11592 59.0967 3.82191 59.3907 3.5279 59.6847C3.23388 59.9787 2.93987 60.2727 2.93987 60.5667C2.64585 60.8607 2.64585 61.4488 2.64585 61.7428C2.64585 62.0368 2.64585 62.6248 2.93987 62.9188C3.23388 63.2129 3.23388 63.5069 3.5279 63.8009C3.82191 64.0949 4.11592 64.3889 4.40994 64.3889C4.70395 64.6829 5.29198 64.6829 5.586 64.6829C5.88001 64.6829 6.46804 64.6829 6.76205 64.3889C7.05607 64.0949 7.35008 64.0949 7.6441 63.8009C7.93811 63.5069 8.23213 63.2129 8.23213 62.9188C8.52614 62.6248 8.52614 62.0368 8.52614 61.7428C8.52614 61.4488 8.52614 60.8607 8.23213 60.5667C8.23213 60.2727 7.93811 59.9787 7.6441 59.6847Z" fill="#B0C8F5"/>
<path id="Vector_5" d="M73.2102 14.701C74.0922 14.701 74.6803 14.407 75.2683 13.819C75.8563 13.231 76.1503 12.6429 76.1503 11.7609C76.1503 10.8788 75.8563 10.2908 75.2683 9.70279C74.9743 9.40877 74.6802 9.11476 74.3862 9.11476C73.7982 8.82074 72.9162 8.82074 72.0341 9.11476C71.7401 9.11476 71.4461 9.40877 71.1521 9.70279C70.564 10.2908 70.27 10.8788 70.27 11.7609C70.27 12.6429 70.564 13.231 71.1521 13.819C71.7401 14.407 72.3281 14.701 73.2102 14.701Z" fill="#B0C8F5"/>
</g>
</svg>
