<svg preserveAspectRatio="none" width="100%" height="100%" overflow="visible" style="display: block;" viewBox="0 0 65.8288 65.8288" fill="none" xmlns="http://www.w3.org/2000/svg">
<g id="route-svgrepo-com 1" clip-path="url(#clip0_0_1449)">
<path id="Vector" d="M13.8245 21.0654C6.22719 21.0654 0.000439453 27.273 0.000439453 34.8499C0.000439453 37.7859 0.937842 40.5145 2.52497 42.7573L12.138 59.3751C13.4842 61.1341 14.3794 60.8003 15.4992 59.2829L26.1016 41.2393C26.3155 40.8509 26.4834 40.4388 26.6302 40.0175C27.303 38.3777 27.6489 36.6223 27.6485 34.8499C27.6485 27.273 21.4238 21.0654 13.8245 21.0654ZM13.8245 27.5245C17.9164 27.5245 21.171 30.7705 21.171 34.8506C21.171 38.9307 17.9164 42.1754 13.8245 42.1754C9.73323 42.1754 6.47799 38.93 6.47799 34.8506C6.47799 30.7705 9.73323 27.5245 13.8245 27.5245Z" fill="#B0C8F5"/>
<path id="Vector_2" d="M57.7654 0.000484085C53.3338 0.000484085 49.7014 3.62173 49.7014 8.04213C49.7014 9.75434 50.2477 11.3461 51.174 12.6541L56.7819 22.348C57.5672 23.3737 58.0893 23.1788 58.7423 22.2941L64.9269 11.768C65.052 11.5422 65.1501 11.302 65.235 11.0558C65.6276 10.0996 65.8295 9.07581 65.8294 8.04213C65.8294 3.62107 62.1983 0.000484085 57.7654 0.000484085ZM57.7654 3.76852C60.1523 3.76852 62.0509 5.66176 62.0509 8.04213C62.0509 10.4218 60.1523 12.3144 57.7654 12.3144C55.3791 12.3144 53.4799 10.4218 53.4799 8.04213C53.4799 5.66176 55.3791 3.76852 57.7654 3.76852Z" fill="#B0C8F5"/>
<path id="Vector_3" fill-rule="evenodd" clip-rule="evenodd" d="M58.0668 24.6289C56.5876 24.6618 55.1045 24.7244 53.6187 24.8343L53.8478 28.4759C55.275 28.3726 56.7046 28.3061 58.1353 28.2765L58.0668 24.6289ZM50.1838 25.1687C47.8995 25.4524 45.5955 25.8566 43.3178 26.5063L44.1756 30.0354C46.2453 29.4456 48.39 29.0644 50.5682 28.7939L50.1838 25.1687ZM39.9073 27.7281C39.2248 28.0294 38.564 28.3776 37.9298 28.7702L37.9271 28.7735L37.9232 28.7748C37.018 29.3449 36.0642 30.0683 35.2854 31.1196C34.7213 31.8813 34.2598 32.8443 34.1518 33.9832L37.5058 34.3551C37.5308 34.0878 37.6678 33.735 37.914 33.4032H37.9153V33.4019C38.3122 32.8647 38.9073 32.377 39.615 31.9306L39.6176 31.9293C40.122 31.618 40.6473 31.3417 41.1896 31.1025L39.9073 27.7281ZM38.1806 35.9798L36.0062 38.7676C36.5217 39.2389 37.0621 39.601 37.5842 39.9038L37.5907 39.9071L37.5973 39.9111C39.3299 40.8965 41.1165 41.4528 42.7728 41.9807L43.7247 38.4799C42.0691 37.952 40.5083 37.4425 39.1706 36.6828C38.7875 36.4603 38.4518 36.2279 38.1806 35.9798ZM46.9588 39.4647L46.0293 42.9714L46.4691 43.1084L47.0089 43.2808C48.7955 43.8621 50.507 44.4829 52.0369 45.3419L53.5891 42.1032C51.7393 41.0637 49.8191 40.3844 47.9686 39.7827L47.9634 39.7814L47.4091 39.6043L46.9588 39.4647ZM56.7456 44.5336L54.3606 47.114C54.9241 47.7243 55.3461 48.4583 55.5515 49.2166L55.5528 49.2206L55.5541 49.2265C55.799 50.1119 55.7996 51.1533 55.6081 52.2052L58.9153 52.9109C59.1852 51.4258 59.2287 49.7953 58.785 48.1857C58.3986 46.7625 57.6613 45.5263 56.7456 44.5336ZM54.4534 54.4039C54.089 54.7888 53.6862 55.1356 53.2514 55.4388H53.2501C52.0652 56.2721 50.6907 56.9002 49.2306 57.44L50.3194 60.892C51.9164 60.3015 53.5562 59.5774 55.0887 58.4991L55.0926 58.4958L55.0946 58.4945C55.724 58.0538 56.3061 57.5493 56.8318 56.989L54.4534 54.4039ZM46.1327 58.4122C44.0176 58.981 41.8558 59.4142 39.6676 59.7815L40.1837 63.3882C42.4357 63.0097 44.697 62.5575 46.9444 61.9532L46.1327 58.4122ZM36.3755 60.2792C34.1729 60.58 31.9584 60.8255 29.7374 61.0349L30.0283 64.6699C32.2836 64.458 34.5429 64.2085 36.7988 63.8997L36.3755 60.2792ZM26.3992 61.3212C24.1735 61.4976 21.9426 61.6411 19.7097 61.7623L19.8782 65.4066C22.1328 65.2848 24.3894 65.1393 26.6454 64.9602L26.3992 61.3212ZM16.3544 61.9268C15.0161 61.9894 13.6745 62.0407 12.3296 62.0881L12.4402 65.7357C13.7935 65.6892 15.1465 65.6352 16.4992 65.5738L16.3544 61.9268Z" fill="#B0C8F5"/>
</g>
<defs>
<clipPath id="clip0_0_1449">
<rect width="65.8288" height="65.8288" fill="white"/>
</clipPath>
</defs>
</svg>
