<svg width="94" height="48" viewBox="0 0 94 48" fill="none" xmlns="http://www.w3.org/2000/svg">
<path d="M5.32583 6.23749L0.863421 10.708H10.6953L4.51257 13.995C3.96932 14.2795 3.53925 14.5495 3.1593 14.847C1.14313 16.425 -0.00804178 18.7662 4.22932e-05 21.2674C0.0162104 25.7896 3.92567 29.4695 8.71629 29.4695H11.2951L16.2005 25.0653H8.71629C6.43496 25.0653 4.57401 23.3547 4.56593 21.2528C4.56108 20.0903 5.09786 19.0022 6.03561 18.2682C6.19244 18.1453 6.39939 18.0192 6.68557 17.8688L16.2021 12.923V29.2059H20.9006V6.23749H5.32745H5.32583Z" fill="#010101"/>
<path d="M25.4745 6.23602V29.2045H30.4786V10.7243V6.23602H25.4745Z" fill="#010101"/>
<path d="M47.1965 10.7193H53.4487V6.23749H47.1965L42.1989 10.7144H42.194V29.2043H46.5513H47.1965H49.0946L53.5813 24.716H47.1965V10.7193Z" fill="#010101"/>
<path d="M47.1981 0H42.194V6.23605H47.1981V0Z" fill="#010101"/>
<path d="M30.4788 10.7194H38.5596V6.23602H35.4456L30.4788 10.7194Z" fill="#010101"/>
<path d="M77.9807 15.5522C77.6881 13.7269 76.9848 12.0438 75.8918 10.5547C75.3615 9.79638 74.7115 9.09469 73.9581 8.46575C71.9064 6.77618 69.4359 5.88208 66.8118 5.88208C64.1877 5.88208 61.6881 6.80043 59.6638 8.46736C57.5232 10.2572 56.0955 12.7729 55.6428 15.5506C55.6347 15.5959 55.6299 15.6395 55.6234 15.6848L60.4593 20.0502H77.9403L77.9807 19.8255C78.0891 19.2159 78.144 18.5692 78.144 17.9047V17.4973C78.144 16.8328 78.0907 16.1973 77.9807 15.5539V15.5522ZM60.4593 15.3226C61.3502 12.5547 63.9355 10.6355 66.8118 10.6355C68.6048 10.6355 70.2895 11.3485 71.5571 12.6436C71.9355 13.03 72.2604 13.4536 72.4997 13.8691C72.8053 14.372 73.0252 14.8505 73.1707 15.3226H60.4593Z" fill="#010101"/>
<path d="M72.5223 21.4633L72.4981 21.5053C72.2701 21.9015 71.9613 22.3105 71.5603 22.7503C70.2653 24.047 68.5789 24.7616 66.8134 24.7616C63.9338 24.7616 61.3485 22.8327 60.4609 20.0486H55.688C56.1763 22.7309 57.5813 25.1593 59.6687 26.9039C61.6913 28.5692 64.2297 29.4875 66.815 29.4875C69.4003 29.4875 71.9096 28.5934 73.9629 26.9039C74.7147 26.2765 75.3663 25.5749 75.895 24.8166L76.0276 24.6274L76.0066 24.6064L72.5256 21.4649L72.5223 21.4633Z" fill="#010101"/>
<path d="M43.5263 39.0995C43.5263 38.7858 43.3258 38.5999 43.0397 38.5999C42.7971 38.5999 42.5773 38.8197 42.5773 39.072C42.5773 39.3242 42.7405 39.4552 43.0768 39.5635C43.8254 39.8012 44.1003 40.0825 44.1003 40.6807C44.1003 41.2789 43.6508 41.7284 43.0397 41.7284C42.4285 41.7284 41.9823 41.2886 41.9742 40.6387H42.4786C42.4835 41.0121 42.7034 41.2644 43.0397 41.2644C43.376 41.2644 43.5958 41.0218 43.5958 40.6807C43.5958 40.4285 43.4843 40.27 43.114 40.1423C42.2587 39.8529 42.0712 39.5716 42.0712 39.0817C42.0712 38.553 42.5061 38.1375 43.0397 38.1375C43.6104 38.1375 44.0211 38.498 44.0308 39.1011H43.5263V39.0995Z" fill="#010101"/>
<path d="M44.9667 41.6619V38.6643H44.3022V38.2019H46.134V38.6643H45.4695V41.6619H44.9651H44.9667Z" fill="#010101"/>
<path d="M48.7063 41.6619L48.3231 40.6433H47.0798L46.6966 41.6619H46.1631L47.4759 38.2019H47.9303L49.2431 41.6619H48.7047H48.7063ZM47.7104 38.8567H47.7007L47.256 40.1793H48.1485L47.7088 38.8567H47.7104Z" fill="#010101"/>
<path d="M49.9256 41.6619V38.6643H49.261V38.2019H51.0929V38.6643H50.4284V41.6619H49.9239H49.9256Z" fill="#010101"/>
<path d="M51.4825 41.6619V38.2019H53.3483V38.6643H51.9885V39.6829H53.3483V40.1453H51.9885V41.1979H53.3483V41.6603H51.4825V41.6619Z" fill="#010101"/>
<path d="M55.6619 41.6619V38.6643H54.9974V38.2019H56.8292V38.6643H56.1647V41.6619H55.6603H55.6619Z" fill="#010101"/>
<path d="M57.219 41.6619V38.2019H59.0848V38.6643H57.7251V39.6829H59.0848V40.1453H57.7251V41.1979H59.0848V41.6603H57.219V41.6619Z" fill="#010101"/>
<path d="M62.9165 40.8068C62.5657 41.4099 62.0095 41.7284 61.3175 41.7284C60.3587 41.7284 59.5697 40.8682 59.5697 39.9467C59.5697 38.9038 60.3927 38.1375 61.3223 38.1375C61.9771 38.1375 62.5899 38.4366 62.9391 39.0865H62.3312C62.0693 38.7826 61.7653 38.5999 61.3595 38.5999C60.6352 38.5999 60.0741 39.2126 60.0741 39.8998C60.0741 40.6241 60.6206 41.2644 61.332 41.2644C61.6926 41.2644 62.0143 41.1237 62.2957 40.8068H62.9181H62.9165Z" fill="#010101"/>
<path d="M65.3758 41.6619V40.1566H63.9498V41.6619H63.4453V38.2019H63.9498V39.6926H65.3758V38.2019H65.8802V41.6619H65.3758Z" fill="#010101"/>
<path d="M68.8488 41.6619L67.1382 38.9877H67.1285V41.6619H66.624V38.2019H67.1754L68.8585 40.8341H68.8682V38.2019H69.3726V41.6619H68.8488Z" fill="#010101"/>
<path d="M71.7184 41.7268C70.7597 41.7268 69.9464 40.9038 69.9464 39.9693C69.9464 38.9087 70.7597 38.1375 71.733 38.1375C72.7613 38.1375 73.5471 38.9459 73.5471 39.9095C73.5471 40.9572 72.7387 41.7284 71.7184 41.7284V41.7268ZM73.041 39.9418C73.041 39.2272 72.4994 38.5999 71.7686 38.5999C70.834 38.5999 70.4509 39.4034 70.4509 39.9176C70.4509 40.6144 70.9553 41.2644 71.7459 41.2644C72.5365 41.2644 73.041 40.5724 73.041 39.9418Z" fill="#010101"/>
<path d="M74.1405 41.6619V38.2019H74.6449V41.1995H75.8462V41.6619H74.1405Z" fill="#010101"/>
<path d="M77.843 41.7268C76.8842 41.7268 76.0709 40.9038 76.0709 39.9693C76.0709 38.9087 76.8842 38.1375 77.8575 38.1375C78.8858 38.1375 79.6716 38.9459 79.6716 39.9095C79.6716 40.9572 78.8632 41.7284 77.843 41.7284V41.7268ZM79.1655 39.9418C79.1655 39.2272 78.6239 38.5999 77.8931 38.5999C76.9586 38.5999 76.5754 39.4034 76.5754 39.9176C76.5754 40.6144 77.0798 41.2644 77.8704 41.2644C78.6611 41.2644 79.1655 40.5724 79.1655 39.9418Z" fill="#010101"/>
<path d="M81.442 40.4041V39.9417H83.6295C83.5972 41.0912 82.7274 41.7282 81.8058 41.7282C80.8842 41.7282 80.0709 40.915 80.0709 39.9805C80.0709 38.8584 80.9311 38.1389 81.8058 38.1389C82.4703 38.1389 83.0394 38.4526 83.3902 39.0734H82.8017C82.5075 38.7371 82.2132 38.6013 81.83 38.6013C81.1574 38.6013 80.577 39.2367 80.577 39.919C80.577 40.6482 81.1526 41.2658 81.8494 41.2658C82.3959 41.2658 82.8357 40.9619 83.0556 40.4057H81.442V40.4041Z" fill="#010101"/>
<path d="M84.1761 41.6619V38.2019H84.6806V41.6619H84.1761Z" fill="#010101"/>
<path d="M88.5981 40.8068C88.2473 41.4099 87.6911 41.7284 86.9991 41.7284C86.0403 41.7284 85.2513 40.8682 85.2513 39.9467C85.2513 38.9038 86.0743 38.1375 87.004 38.1375C87.6588 38.1375 88.2715 38.4366 88.6208 39.0865H88.0129C87.7509 38.7826 87.447 38.5999 87.0412 38.5999C86.3168 38.5999 85.7558 39.2126 85.7558 39.8998C85.7558 40.6241 86.3023 41.2644 87.0137 41.2644C87.3742 41.2644 87.696 41.1237 87.9773 40.8068H88.5998H88.5981Z" fill="#010101"/>
<path d="M91.193 41.6619L90.8099 40.6433H89.5665L89.1833 41.6619H88.6498L89.9626 38.2019H90.4153L91.7298 41.6619H91.1914H91.193ZM90.1971 38.8567H90.1874L89.7427 40.1793H90.6352L90.1955 38.8567H90.1971Z" fill="#010101"/>
<path d="M92.202 41.6619V38.2019H92.7065V41.1995H93.9078V41.6619H92.202Z" fill="#010101"/>
<path d="M43.8495 47.9321L42.7081 46.3283H42.6984V47.9321H42.1939V44.4722H43.3014C44.1341 44.4722 44.5027 44.9119 44.5027 45.6217C44.5027 46.2814 43.9983 46.6274 43.5116 46.6403L44.4801 47.9305H43.8495V47.9321ZM43.0686 46.2587C43.6571 46.2587 43.9983 46.0292 43.9983 45.5813C43.9983 45.1836 43.6798 44.9362 43.2319 44.9362H42.6984V46.2587H43.067H43.0686Z" fill="#010101"/>
<path d="M45.0185 47.9321V44.4722H46.8843V44.9346H45.5246V45.9532H46.8843V46.4156H45.5246V47.4681H46.8843V47.9305H45.0185V47.9321Z" fill="#010101"/>
<path d="M47.4954 47.9321V44.4722H49.2431V44.9346H47.9998V45.9726H49.2431V46.435H47.9998V47.9305H47.4954V47.9321Z" fill="#010101"/>
<path d="M51.4405 47.9981C50.4817 47.9981 49.6685 47.1752 49.6685 46.2407C49.6685 45.18 50.4817 44.4088 51.455 44.4088C52.4833 44.4088 53.2691 45.2172 53.2691 46.1808C53.2691 47.2285 52.4607 47.9998 51.4405 47.9998V47.9981ZM52.763 46.2116C52.763 45.4969 52.2214 44.8696 51.4906 44.8696C50.5561 44.8696 50.1729 45.6732 50.1729 46.1873C50.1729 46.8842 50.6774 47.5341 51.468 47.5341C52.2586 47.5341 52.763 46.8421 52.763 46.2116Z" fill="#010101"/>
<path d="M55.4518 47.9321L54.3103 46.3283H54.3006V47.9321H53.7962V44.4722H54.9037C55.7364 44.4722 56.105 44.9119 56.105 45.6217C56.105 46.2814 55.6006 46.6274 55.1139 46.6403L56.0824 47.9305H55.4518V47.9321ZM54.6709 46.2587C55.2594 46.2587 55.6006 46.0292 55.6006 45.5813C55.6006 45.1836 55.2821 44.9362 54.8342 44.9362H54.3006V46.2587H54.6693H54.6709Z" fill="#010101"/>
<path d="M59.8317 47.9321V45.0106H59.8172L58.6531 47.9321H58.3491L57.1802 45.0106H57.1705V47.9321H56.666V44.4722H57.4615L58.4995 47.1237L59.5423 44.4722H60.3378V47.9321H59.8334H59.8317Z" fill="#010101"/>
<path d="M64.6643 47.9321L64.2812 46.9136H63.0378L62.6546 47.9321H62.1211L63.4339 44.4722H63.8883L65.2011 47.9321H64.6643ZM63.67 45.127H63.6603L63.2157 46.4495H64.1082L63.6684 45.127H63.67Z" fill="#010101"/>
<path d="M66.619 46.6758V46.2134H68.8065C68.7742 47.3629 67.9044 48 66.9828 48C66.0612 48 65.2479 47.1867 65.2479 46.2522C65.2479 45.1301 66.1081 44.4106 66.9828 44.4106C67.6473 44.4106 68.2164 44.7243 68.5672 45.3452H67.9787C67.6845 45.0089 67.3902 44.8731 67.007 44.8731C66.3344 44.8731 65.754 45.5085 65.754 46.1908C65.754 46.9199 66.3296 47.5376 67.0264 47.5376C67.5729 47.5376 68.0127 47.2336 68.2326 46.6774H66.619V46.6758Z" fill="#010101"/>
<path d="M69.3063 47.9321V44.4722H71.1721V44.9346H69.8107V45.9532H71.1721V46.4156H69.8107V47.4681H71.1721V47.9305H69.3063V47.9321Z" fill="#010101"/>
<path d="M74.0564 47.9321L72.3458 45.2579H72.3361V47.9321H71.8317V44.4722H72.383L74.0661 47.1043H74.0758V44.4722H74.5803V47.9321H74.0564Z" fill="#010101"/>
<path d="M78.5011 47.0767C78.1503 47.6798 77.5941 47.9983 76.9021 47.9983C75.9433 47.9983 75.1543 47.1381 75.1543 46.2166C75.1543 45.1737 75.9773 44.4073 76.9069 44.4073C77.5617 44.4073 78.1745 44.7065 78.5237 45.3564H77.9158C77.6539 45.0525 77.3499 44.8698 76.9441 44.8698C76.2198 44.8698 75.6587 45.4825 75.6587 46.1697C75.6587 46.894 76.2052 47.5343 76.9166 47.5343C77.2772 47.5343 77.5989 47.3936 77.8802 47.0767H78.5027H78.5011Z" fill="#010101"/>
<path d="M79.8154 47.9321V46.684L78.7402 44.4722H79.3061L80.0676 46.0938L80.8243 44.4722H81.3853L80.3199 46.684V47.9321H79.8154Z" fill="#010101"/>
</svg>
